<mxfile host="app.diagrams.net" modified="2020-11-03T15:29:39.137Z" agent="5.0 (Windows NT 10.0; Win64; x64) AppleWebKit/537.36 (KHTML, like Gecko) Chrome/86.0.4240.111 Safari/537.36" etag="RWRatOQqvXH5WUImlW5R" version="13.8.1" type="github">
  <diagram id="FZEpw7puESmS80Yj7KVk" name="第 1 页">
    <mxGraphModel dx="1422" dy="804" grid="0" gridSize="10" guides="1" tooltips="1" connect="1" arrows="1" fold="1" page="1" pageScale="1" pageWidth="827" pageHeight="1169" math="0" shadow="0">
      <root>
        <mxCell id="0" />
        <mxCell id="1" parent="0" />
        <mxCell id="EslYNGPi5xB0IXmi_2N5-1" value="&lt;font style=&quot;font-size: 25px&quot;&gt;&lt;b&gt;drwx------&amp;nbsp; &amp;nbsp;3&amp;nbsp; &amp;nbsp;www&amp;nbsp; &amp;nbsp;www&amp;nbsp; &amp;nbsp;4096&amp;nbsp; &amp;nbsp;7月&amp;nbsp; &amp;nbsp;14&amp;nbsp; &amp;nbsp;11:19&amp;nbsp; &amp;nbsp;www&lt;/b&gt;&lt;/font&gt;" style="text;html=1;align=center;verticalAlign=middle;resizable=0;points=[];autosize=1;fontColor=#5AA9E6;" parent="1" vertex="1">
          <mxGeometry x="60" y="260" width="660" height="20" as="geometry" />
        </mxCell>
        <mxCell id="EslYNGPi5xB0IXmi_2N5-3" value="" style="endArrow=classic;html=1;strokeColor=#FF6392;fillColor=#FFE45E;fontColor=#5AA9E6;rounded=1;strokeWidth=3;" parent="1" edge="1">
          <mxGeometry width="50" height="50" relative="1" as="geometry">
            <mxPoint x="120" y="290" as="sourcePoint" />
            <mxPoint x="120" y="350" as="targetPoint" />
          </mxGeometry>
        </mxCell>
        <mxCell id="EslYNGPi5xB0IXmi_2N5-4" value="" style="endArrow=classic;html=1;strokeColor=#FF6392;fillColor=#FFE45E;fontColor=#5AA9E6;rounded=1;strokeWidth=3;" parent="1" edge="1">
          <mxGeometry width="50" height="50" relative="1" as="geometry">
            <mxPoint x="200" y="290" as="sourcePoint" />
            <mxPoint x="200" y="350" as="targetPoint" />
          </mxGeometry>
        </mxCell>
        <mxCell id="EslYNGPi5xB0IXmi_2N5-5" value="" style="endArrow=classic;html=1;strokeColor=#FF6392;fillColor=#FFE45E;fontColor=#5AA9E6;rounded=1;strokeWidth=3;" parent="1" edge="1">
          <mxGeometry width="50" height="50" relative="1" as="geometry">
            <mxPoint x="540" y="340" as="sourcePoint" />
            <mxPoint x="540" y="350" as="targetPoint" />
          </mxGeometry>
        </mxCell>
        <mxCell id="EslYNGPi5xB0IXmi_2N5-6" value="" style="endArrow=classic;html=1;strokeColor=#FF6392;fillColor=#FFE45E;fontColor=#5AA9E6;rounded=1;strokeWidth=3;edgeStyle=orthogonalEdgeStyle;" parent="1" edge="1">
          <mxGeometry width="50" height="50" relative="1" as="geometry">
            <mxPoint x="480" y="290" as="sourcePoint" />
            <mxPoint x="540" y="350" as="targetPoint" />
            <Array as="points">
              <mxPoint x="480" y="330" />
              <mxPoint x="540" y="330" />
            </Array>
          </mxGeometry>
        </mxCell>
        <mxCell id="EslYNGPi5xB0IXmi_2N5-7" value="" style="endArrow=classic;html=1;strokeColor=#FF6392;fillColor=#FFE45E;fontColor=#5AA9E6;rounded=1;strokeWidth=3;" parent="1" edge="1">
          <mxGeometry width="50" height="50" relative="1" as="geometry">
            <mxPoint x="413" y="290" as="sourcePoint" />
            <mxPoint x="413" y="350" as="targetPoint" />
          </mxGeometry>
        </mxCell>
        <mxCell id="EslYNGPi5xB0IXmi_2N5-8" value="" style="endArrow=classic;html=1;strokeColor=#FF6392;fillColor=#FFE45E;fontColor=#5AA9E6;rounded=1;strokeWidth=3;" parent="1" edge="1">
          <mxGeometry width="50" height="50" relative="1" as="geometry">
            <mxPoint x="340" y="290" as="sourcePoint" />
            <mxPoint x="340" y="350" as="targetPoint" />
          </mxGeometry>
        </mxCell>
        <mxCell id="EslYNGPi5xB0IXmi_2N5-9" value="" style="endArrow=classic;html=1;strokeColor=#FF6392;fillColor=#FFE45E;fontColor=#5AA9E6;rounded=1;strokeWidth=3;" parent="1" edge="1">
          <mxGeometry width="50" height="50" relative="1" as="geometry">
            <mxPoint x="259" y="290" as="sourcePoint" />
            <mxPoint x="259" y="350" as="targetPoint" />
          </mxGeometry>
        </mxCell>
        <mxCell id="EslYNGPi5xB0IXmi_2N5-10" value="" style="endArrow=classic;html=1;strokeColor=#FF6392;fillColor=#FFE45E;fontColor=#5AA9E6;rounded=1;strokeWidth=3;" parent="1" edge="1">
          <mxGeometry width="50" height="50" relative="1" as="geometry">
            <mxPoint x="690" y="290" as="sourcePoint" />
            <mxPoint x="690" y="350" as="targetPoint" />
          </mxGeometry>
        </mxCell>
        <mxCell id="EslYNGPi5xB0IXmi_2N5-11" value="" style="endArrow=classic;html=1;strokeColor=#FF6392;fillColor=#FFE45E;fontColor=#5AA9E6;rounded=1;strokeWidth=3;edgeStyle=orthogonalEdgeStyle;" parent="1" edge="1">
          <mxGeometry width="50" height="50" relative="1" as="geometry">
            <mxPoint x="600" y="290" as="sourcePoint" />
            <mxPoint x="540" y="350" as="targetPoint" />
            <Array as="points">
              <mxPoint x="600" y="330" />
              <mxPoint x="540" y="330" />
            </Array>
          </mxGeometry>
        </mxCell>
        <mxCell id="EslYNGPi5xB0IXmi_2N5-13" value="&lt;font style=&quot;font-size: 18px&quot;&gt;&lt;b&gt;权限&lt;/b&gt;&lt;/font&gt;" style="text;html=1;align=center;verticalAlign=middle;resizable=0;points=[];autosize=1;fontColor=#A680B8;" parent="1" vertex="1">
          <mxGeometry x="95" y="360" width="50" height="20" as="geometry" />
        </mxCell>
        <mxCell id="EslYNGPi5xB0IXmi_2N5-15" value="&lt;span style=&quot;font-family: monospace ; font-size: 0px&quot;&gt;%3CmxGraphModel%3E%3Croot%3E%3CmxCell%20id%3D%220%22%2F%3E%3CmxCell%20id%3D%221%22%20parent%3D%220%22%2F%3E%3CmxCell%20id%3D%222%22%20value%3D%22%26lt%3Bfont%20style%3D%26quot%3Bfont-size%3A%2018px%26quot%3B%26gt%3B%26lt%3Bb%26gt%3B%E6%9D%83%E9%99%90%26lt%3B%2Fb%26gt%3B%26lt%3B%2Ffont%26gt%3B%22%20style%3D%22text%3Bhtml%3D1%3Balign%3Dcenter%3BverticalAlign%3Dmiddle%3Bresizable%3D0%3Bpoints%3D%5B%5D%3Bautosize%3D1%3BfontColor%3D%235AA9E6%3B%22%20vertex%3D%221%22%20parent%3D%221%22%3E%3CmxGeometry%20x%3D%2295%22%20y%3D%22360%22%20width%3D%2250%22%20height%3D%2220%22%20as%3D%22geometry%22%2F%3E%3C%2FmxCell%3E%3C%2Froot%3E%3C%2FmxGraphModel%3E&lt;/span&gt;&lt;span style=&quot;font-size: 18px&quot;&gt;&lt;b&gt;链接数&lt;/b&gt;&lt;/span&gt;" style="text;html=1;align=center;verticalAlign=middle;resizable=0;points=[];autosize=1;fontColor=#A680B8;" parent="1" vertex="1">
          <mxGeometry x="166" y="358" width="64" height="24" as="geometry" />
        </mxCell>
        <mxCell id="EslYNGPi5xB0IXmi_2N5-16" value="&lt;span style=&quot;font-size: 18px&quot;&gt;&lt;b&gt;拥有者&lt;/b&gt;&lt;/span&gt;" style="text;html=1;align=center;verticalAlign=middle;resizable=0;points=[];autosize=1;fontColor=#A680B8;" parent="1" vertex="1">
          <mxGeometry x="230" y="360" width="70" height="20" as="geometry" />
        </mxCell>
        <mxCell id="EslYNGPi5xB0IXmi_2N5-17" value="&lt;font style=&quot;font-size: 18px&quot;&gt;&lt;b&gt;用户组&lt;/b&gt;&lt;/font&gt;" style="text;html=1;align=center;verticalAlign=middle;resizable=0;points=[];autosize=1;fontColor=#A680B8;" parent="1" vertex="1">
          <mxGeometry x="306" y="360" width="70" height="20" as="geometry" />
        </mxCell>
        <mxCell id="EslYNGPi5xB0IXmi_2N5-18" value="&lt;font style=&quot;font-size: 18px&quot;&gt;&lt;b&gt;文件容量&lt;/b&gt;&lt;/font&gt;" style="text;html=1;align=center;verticalAlign=middle;resizable=0;points=[];autosize=1;fontColor=#A680B8;" parent="1" vertex="1">
          <mxGeometry x="369" y="360" width="90" height="20" as="geometry" />
        </mxCell>
        <mxCell id="EslYNGPi5xB0IXmi_2N5-19" value="&lt;font style=&quot;font-size: 18px&quot;&gt;&lt;b&gt;修改日期&lt;/b&gt;&lt;/font&gt;" style="text;html=1;align=center;verticalAlign=middle;resizable=0;points=[];autosize=1;fontColor=#A680B8;" parent="1" vertex="1">
          <mxGeometry x="497" y="360" width="90" height="20" as="geometry" />
        </mxCell>
        <mxCell id="EslYNGPi5xB0IXmi_2N5-20" value="&lt;font style=&quot;font-size: 18px&quot;&gt;&lt;b&gt;文件名&lt;/b&gt;&lt;/font&gt;" style="text;html=1;align=center;verticalAlign=middle;resizable=0;points=[];autosize=1;fontColor=#A680B8;" parent="1" vertex="1">
          <mxGeometry x="656" y="360" width="70" height="20" as="geometry" />
        </mxCell>
        <mxCell id="EslYNGPi5xB0IXmi_2N5-21" value="&lt;b style=&quot;transition-duration: 0s ; color: rgb(90 , 169 , 230) ; font-family: &amp;#34;helvetica&amp;#34; ; font-style: normal ; letter-spacing: normal ; text-align: center ; text-indent: 0px ; text-transform: none ; word-spacing: 0px ; background-color: rgb(248 , 249 , 250)&quot; class=&quot;cs_cursor&quot;&gt;&lt;font style=&quot;font-size: 32px&quot;&gt;d&amp;nbsp; &amp;nbsp; &amp;nbsp; &amp;nbsp; &amp;nbsp; &amp;nbsp; &amp;nbsp; rwx&lt;b class=&quot;cs_cursor&quot; style=&quot;font-size: 12px&quot;&gt;&lt;font style=&quot;font-size: 32px ; transition-duration: 0s&quot;&gt;&amp;nbsp; &amp;nbsp; &amp;nbsp; &amp;nbsp; &amp;nbsp; &amp;nbsp; &amp;nbsp;&amp;nbsp;&lt;/font&gt;&lt;/b&gt;---&lt;b class=&quot;cs_cursor&quot; style=&quot;font-size: 12px&quot;&gt;&lt;font style=&quot;font-size: 32px ; transition-duration: 0s&quot;&gt;&amp;nbsp; &amp;nbsp; &amp;nbsp; &amp;nbsp; &amp;nbsp; &amp;nbsp; &amp;nbsp;&amp;nbsp;&lt;/font&gt;&lt;/b&gt;---&lt;/font&gt;&lt;/b&gt;" style="text;whiteSpace=wrap;html=1;fontColor=#A680B8;" parent="1" vertex="1">
          <mxGeometry x="161" y="442" width="592" height="53" as="geometry" />
        </mxCell>
        <mxCell id="EslYNGPi5xB0IXmi_2N5-23" value="" style="endArrow=classic;html=1;strokeColor=#FF6392;fillColor=#FFE45E;fontColor=#5AA9E6;rounded=1;strokeWidth=3;" parent="1" edge="1">
          <mxGeometry width="50" height="50" relative="1" as="geometry">
            <mxPoint x="171" y="492" as="sourcePoint" />
            <mxPoint x="171" y="530" as="targetPoint" />
          </mxGeometry>
        </mxCell>
        <mxCell id="EslYNGPi5xB0IXmi_2N5-24" value="" style="endArrow=classic;html=1;strokeColor=#FF6392;fillColor=#FFE45E;fontColor=#5AA9E6;rounded=1;strokeWidth=3;" parent="1" edge="1">
          <mxGeometry width="50" height="50" relative="1" as="geometry">
            <mxPoint x="335" y="495" as="sourcePoint" />
            <mxPoint x="335" y="533" as="targetPoint" />
          </mxGeometry>
        </mxCell>
        <mxCell id="EslYNGPi5xB0IXmi_2N5-25" value="" style="endArrow=classic;html=1;strokeColor=#FF6392;fillColor=#FFE45E;fontColor=#5AA9E6;rounded=1;strokeWidth=3;" parent="1" edge="1">
          <mxGeometry width="50" height="50" relative="1" as="geometry">
            <mxPoint x="505" y="495" as="sourcePoint" />
            <mxPoint x="505" y="533" as="targetPoint" />
          </mxGeometry>
        </mxCell>
        <mxCell id="EslYNGPi5xB0IXmi_2N5-26" value="" style="endArrow=classic;html=1;strokeColor=#FF6392;fillColor=#FFE45E;fontColor=#5AA9E6;rounded=1;strokeWidth=3;" parent="1" edge="1">
          <mxGeometry width="50" height="50" relative="1" as="geometry">
            <mxPoint x="660.66" y="495" as="sourcePoint" />
            <mxPoint x="660.66" y="533" as="targetPoint" />
          </mxGeometry>
        </mxCell>
        <mxCell id="EslYNGPi5xB0IXmi_2N5-28" value="&lt;span style=&quot;font-size: 18px&quot;&gt;&lt;b&gt;类型&lt;/b&gt;&lt;/span&gt;" style="text;html=1;align=center;verticalAlign=middle;resizable=0;points=[];autosize=1;fontColor=#A680B8;" parent="1" vertex="1">
          <mxGeometry x="150" y="540" width="46" height="20" as="geometry" />
        </mxCell>
        <mxCell id="EslYNGPi5xB0IXmi_2N5-29" value="&lt;font style=&quot;font-size: 18px&quot;&gt;&lt;b&gt;拥有者权限&lt;/b&gt;&lt;/font&gt;" style="text;html=1;align=center;verticalAlign=middle;resizable=0;points=[];autosize=1;fontColor=#A680B8;" parent="1" vertex="1">
          <mxGeometry x="285" y="540" width="100" height="20" as="geometry" />
        </mxCell>
        <mxCell id="EslYNGPi5xB0IXmi_2N5-30" value="&lt;font style=&quot;font-size: 18px&quot;&gt;&lt;b&gt;对应用户组权限&lt;/b&gt;&lt;/font&gt;" style="text;html=1;align=center;verticalAlign=middle;resizable=0;points=[];autosize=1;fontColor=#A680B8;" parent="1" vertex="1">
          <mxGeometry x="442" y="540" width="136" height="20" as="geometry" />
        </mxCell>
        <mxCell id="EslYNGPi5xB0IXmi_2N5-31" value="&lt;font style=&quot;font-size: 18px&quot;&gt;&lt;b&gt;其他用户权限&lt;/b&gt;&lt;/font&gt;" style="text;html=1;align=center;verticalAlign=middle;resizable=0;points=[];autosize=1;fontColor=#A680B8;" parent="1" vertex="1">
          <mxGeometry x="610" y="540" width="118" height="20" as="geometry" />
        </mxCell>
        <mxCell id="LNkVgnZZDE2r3hfaQXWH-1" value="" style="shape=table;html=1;whiteSpace=wrap;startSize=0;container=1;collapsible=0;childLayout=tableLayout;fontSize=19;fontStyle=1;strokeWidth=2;fillColor=#f5f5f5;strokeColor=#666666;fontColor=#333333;" vertex="1" parent="1">
          <mxGeometry x="37" y="804" width="731" height="131" as="geometry" />
        </mxCell>
        <mxCell id="LNkVgnZZDE2r3hfaQXWH-2" value="" style="shape=partialRectangle;html=1;whiteSpace=wrap;collapsible=0;dropTarget=0;pointerEvents=0;fillColor=none;top=0;left=0;bottom=0;right=0;points=[[0,0.5],[1,0.5]];portConstraint=eastwest;fontSize=19;fontStyle=1" vertex="1" parent="LNkVgnZZDE2r3hfaQXWH-1">
          <mxGeometry width="731" height="131" as="geometry" />
        </mxCell>
        <mxCell id="LNkVgnZZDE2r3hfaQXWH-3" value="chmod" style="shape=partialRectangle;html=1;whiteSpace=wrap;connectable=0;overflow=hidden;fillColor=none;top=0;left=0;bottom=0;right=0;noLabel=0;backgroundOutline=0;fontSize=19;fontStyle=1" vertex="1" parent="LNkVgnZZDE2r3hfaQXWH-2">
          <mxGeometry width="146" height="131" as="geometry" />
        </mxCell>
        <mxCell id="LNkVgnZZDE2r3hfaQXWH-4" value="u&lt;br style=&quot;font-size: 19px&quot;&gt;g&lt;br style=&quot;font-size: 19px&quot;&gt;o&lt;br style=&quot;font-size: 19px&quot;&gt;a" style="shape=partialRectangle;html=1;whiteSpace=wrap;connectable=0;overflow=hidden;fillColor=none;top=0;left=0;bottom=0;right=0;fontSize=19;fontStyle=1" vertex="1" parent="LNkVgnZZDE2r3hfaQXWH-2">
          <mxGeometry x="146" width="146" height="131" as="geometry" />
        </mxCell>
        <mxCell id="LNkVgnZZDE2r3hfaQXWH-5" value="+ （加入）&lt;br style=&quot;font-size: 19px;&quot;&gt;&lt;br style=&quot;font-size: 19px;&quot;&gt;- （移除）&lt;br style=&quot;font-size: 19px;&quot;&gt;&lt;br style=&quot;font-size: 19px;&quot;&gt;= （设置）" style="shape=partialRectangle;html=1;whiteSpace=wrap;connectable=0;overflow=hidden;fillColor=none;top=0;left=0;bottom=0;right=0;fontSize=19;fontStyle=1" vertex="1" parent="LNkVgnZZDE2r3hfaQXWH-2">
          <mxGeometry x="292" width="147" height="131" as="geometry" />
        </mxCell>
        <mxCell id="LNkVgnZZDE2r3hfaQXWH-6" value="r&lt;br style=&quot;font-size: 19px;&quot;&gt;&lt;br style=&quot;font-size: 19px;&quot;&gt;w&lt;br style=&quot;font-size: 19px;&quot;&gt;&lt;br style=&quot;font-size: 19px;&quot;&gt;x" style="shape=partialRectangle;html=1;whiteSpace=wrap;connectable=0;overflow=hidden;fillColor=none;top=0;left=0;bottom=0;right=0;fontSize=19;fontStyle=1" vertex="1" parent="LNkVgnZZDE2r3hfaQXWH-2">
          <mxGeometry x="439" width="146" height="131" as="geometry" />
        </mxCell>
        <mxCell id="LNkVgnZZDE2r3hfaQXWH-7" value="文件或目录" style="shape=partialRectangle;html=1;whiteSpace=wrap;connectable=0;overflow=hidden;fillColor=none;top=0;left=0;bottom=0;right=0;fontSize=19;fontStyle=1" vertex="1" parent="LNkVgnZZDE2r3hfaQXWH-2">
          <mxGeometry x="585" width="146" height="131" as="geometry" />
        </mxCell>
      </root>
    </mxGraphModel>
  </diagram>
</mxfile>
